<svg width="50" height="51" xmlns="http://www.w3.org/2000/svg">
 <!-- Created with Method Draw - http://github.com/duopixel/Method-Draw/ -->

 <g>
  <title>background</title>
  <rect fill="none" id="canvas_background" height="53" width="52" y="-1" x="-1"/>
  <g display="none" id="canvasGrid">
   <rect fill="url(#gridpattern)" stroke-width="0" y="0" x="0" height="100%" width="100%" id="svg_2"/>
  </g>
 </g>
 <g>
  <title>Layer 1</title>
  <path stroke="#000" id="svg_1" d="m25.226084,2c6.28542,0 11.3845,5.26672 11.3845,11.75253c0,6.48581 -5.09909,10.74747 -11.3845,10.74747c-6.28541,0 -11.38451,6.26673 -11.38451,12.75253c0,6.48581 5.09909,11.74747 11.38451,11.74747c12.57083,0 22.77392,-10.52839 22.77392,-23.5c0,-12.97162 -10.20309,-23.5 -22.77392,-23.5l0,0zm0,8.07987c-1.9652,0 -3.55919,1.6448 -3.55919,3.67267c0,2.02786 1.59399,3.67267 3.55919,3.67267c1.96521,0 3.55919,-1.6448 3.55919,-3.67267c0,-2.02786 -1.59398,-3.67267 -3.55919,-3.67267zm0,23.5c1.96419,0 3.55919,1.64585 3.55919,3.67267c0,2.02681 -1.595,3.67267 -3.55919,3.67267c-1.96419,0 -3.55919,-1.64586 -3.55919,-3.67267c0,-2.02681 1.595,-3.67267 3.55919,-3.67267zm22.26311,-8.0649c0,12.96198 -10.1831,23.46974 -22.7446,23.46974c-12.56149,0 -22.7446,-10.50776 -22.7446,-23.46974c0,-12.96198 10.1831,-23.46974 22.7446,-23.46974c12.5615,0 22.7446,10.50776 22.7446,23.46974z" stroke-width="1.5" fill="#FFAAB8"/>
 </g>
</svg>